<mxfile host="Electron" modified="2024-04-25T20:05:29.141Z" agent="Mozilla/5.0 (Windows NT 10.0; Win64; x64) AppleWebKit/537.36 (KHTML, like Gecko) draw.io/24.2.5 Chrome/120.0.6099.109 Electron/28.1.0 Safari/537.36" etag="l4Y_qd6uK0wEdCNdf72i" version="24.2.5" type="device">
  <diagram name="Page-1" id="8ce9d11a-91a2-4d17-14d8-a56ed91bf033">
    <mxGraphModel dx="1674" dy="844" grid="1" gridSize="10" guides="1" tooltips="1" connect="1" arrows="1" fold="1" page="1" pageScale="1" pageWidth="1100" pageHeight="850" background="none" math="0" shadow="0">
      <root>
        <mxCell id="0" />
        <mxCell id="1" parent="0" />
        <mxCell id="g2Ka9raoZhiMibMWZY03-174" value="" style="rounded=0;whiteSpace=wrap;html=1;fillColor=#66B2FF;" parent="1" vertex="1">
          <mxGeometry width="1180" height="840" as="geometry" />
        </mxCell>
        <mxCell id="xQAk2ao9affxVQ1fcgdg-56" value="" style="group" parent="1" vertex="1" connectable="0">
          <mxGeometry x="20" y="20" width="300" height="560" as="geometry" />
        </mxCell>
        <mxCell id="xQAk2ao9affxVQ1fcgdg-54" value="" style="rounded=0;whiteSpace=wrap;html=1;strokeColor=default;" parent="xQAk2ao9affxVQ1fcgdg-56" vertex="1">
          <mxGeometry width="300" height="560" as="geometry" />
        </mxCell>
        <mxCell id="xQAk2ao9affxVQ1fcgdg-1" value="&lt;font style=&quot;font-size: 24px;&quot;&gt;C&lt;/font&gt;" style="ellipse;whiteSpace=wrap;html=1;aspect=fixed;fillColor=#FF0000;" parent="xQAk2ao9affxVQ1fcgdg-56" vertex="1">
          <mxGeometry x="180" y="20" width="40" height="40" as="geometry" />
        </mxCell>
        <mxCell id="xQAk2ao9affxVQ1fcgdg-4" value="&lt;font style=&quot;font-size: 24px;&quot;&gt;2&lt;/font&gt;" style="ellipse;whiteSpace=wrap;html=1;aspect=fixed;fillColor=#FFFF33;" parent="xQAk2ao9affxVQ1fcgdg-56" vertex="1">
          <mxGeometry x="180" y="260" width="40" height="40" as="geometry" />
        </mxCell>
        <mxCell id="xQAk2ao9affxVQ1fcgdg-6" value="" style="endArrow=classic;html=1;rounded=0;exitX=0;exitY=1;exitDx=0;exitDy=0;entryX=1;entryY=0;entryDx=0;entryDy=0;" parent="xQAk2ao9affxVQ1fcgdg-56" source="xQAk2ao9affxVQ1fcgdg-3" target="xQAk2ao9affxVQ1fcgdg-5" edge="1">
          <mxGeometry width="50" height="50" relative="1" as="geometry">
            <mxPoint x="70" y="140" as="sourcePoint" />
            <mxPoint x="150" y="160" as="targetPoint" />
          </mxGeometry>
        </mxCell>
        <mxCell id="xQAk2ao9affxVQ1fcgdg-52" value="&lt;font color=&quot;#ff0000&quot; style=&quot;font-size: 18px;&quot;&gt;&lt;b&gt;N&amp;nbsp;&lt;/b&gt;&lt;/font&gt;" style="edgeLabel;html=1;align=center;verticalAlign=middle;resizable=0;points=[];" parent="xQAk2ao9affxVQ1fcgdg-6" vertex="1" connectable="0">
          <mxGeometry x="-0.25" y="-1" relative="1" as="geometry">
            <mxPoint x="13" y="-12" as="offset" />
          </mxGeometry>
        </mxCell>
        <mxCell id="xQAk2ao9affxVQ1fcgdg-9" value="" style="endArrow=classic;html=1;rounded=0;exitX=0.5;exitY=1;exitDx=0;exitDy=0;entryX=0.5;entryY=0;entryDx=0;entryDy=0;" parent="xQAk2ao9affxVQ1fcgdg-56" source="xQAk2ao9affxVQ1fcgdg-1" target="xQAk2ao9affxVQ1fcgdg-3" edge="1">
          <mxGeometry width="50" height="50" relative="1" as="geometry">
            <mxPoint x="80" y="150" as="sourcePoint" />
            <mxPoint x="160" y="170" as="targetPoint" />
          </mxGeometry>
        </mxCell>
        <object label="" id="xQAk2ao9affxVQ1fcgdg-10">
          <mxCell style="endArrow=classic;html=1;rounded=0;exitX=0.5;exitY=1;exitDx=0;exitDy=0;entryX=0.5;entryY=0;entryDx=0;entryDy=0;" parent="xQAk2ao9affxVQ1fcgdg-56" source="xQAk2ao9affxVQ1fcgdg-3" target="xQAk2ao9affxVQ1fcgdg-4" edge="1">
            <mxGeometry width="50" height="50" relative="1" as="geometry">
              <mxPoint x="90" y="160" as="sourcePoint" />
              <mxPoint x="170" y="180" as="targetPoint" />
            </mxGeometry>
          </mxCell>
        </object>
        <mxCell id="xQAk2ao9affxVQ1fcgdg-48" value="&lt;font style=&quot;font-size: 18px;&quot; color=&quot;#00cc00&quot;&gt;&lt;b&gt;&amp;nbsp;S&amp;nbsp;&lt;/b&gt;&lt;/font&gt;" style="edgeLabel;html=1;align=center;verticalAlign=middle;resizable=0;points=[];fillColor=#708DFF;" parent="xQAk2ao9affxVQ1fcgdg-10" vertex="1" connectable="0">
          <mxGeometry x="-0.3833" relative="1" as="geometry">
            <mxPoint y="-27" as="offset" />
          </mxGeometry>
        </mxCell>
        <mxCell id="xQAk2ao9affxVQ1fcgdg-11" value="&lt;font style=&quot;font-size: 24px;&quot;&gt;4&lt;/font&gt;" style="ellipse;whiteSpace=wrap;html=1;aspect=fixed;fillColor=#FFFF33;" parent="xQAk2ao9affxVQ1fcgdg-56" vertex="1">
          <mxGeometry x="100" y="260" width="40" height="40" as="geometry" />
        </mxCell>
        <mxCell id="xQAk2ao9affxVQ1fcgdg-12" value="&lt;font style=&quot;font-size: 24px;&quot;&gt;5&lt;/font&gt;" style="ellipse;whiteSpace=wrap;html=1;aspect=fixed;fillColor=#FFFF33;" parent="xQAk2ao9affxVQ1fcgdg-56" vertex="1">
          <mxGeometry x="20" y="260" width="40" height="40" as="geometry" />
        </mxCell>
        <mxCell id="xQAk2ao9affxVQ1fcgdg-13" value="" style="endArrow=classic;html=1;rounded=0;exitX=0;exitY=1;exitDx=0;exitDy=0;entryX=1;entryY=0;entryDx=0;entryDy=0;" parent="xQAk2ao9affxVQ1fcgdg-56" source="xQAk2ao9affxVQ1fcgdg-5" target="xQAk2ao9affxVQ1fcgdg-12" edge="1">
          <mxGeometry width="50" height="50" relative="1" as="geometry">
            <mxPoint x="190" y="130" as="sourcePoint" />
            <mxPoint x="130" y="190" as="targetPoint" />
          </mxGeometry>
        </mxCell>
        <mxCell id="xQAk2ao9affxVQ1fcgdg-55" value="&lt;font color=&quot;#ff0000&quot; style=&quot;font-size: 18px;&quot;&gt;&lt;b&gt;N&amp;nbsp;&lt;/b&gt;&lt;/font&gt;" style="edgeLabel;html=1;align=center;verticalAlign=middle;resizable=0;points=[];" parent="xQAk2ao9affxVQ1fcgdg-13" vertex="1" connectable="0">
          <mxGeometry x="-0.2514" y="4" relative="1" as="geometry">
            <mxPoint x="10" y="-16" as="offset" />
          </mxGeometry>
        </mxCell>
        <mxCell id="xQAk2ao9affxVQ1fcgdg-14" value="" style="endArrow=classic;html=1;rounded=0;exitX=0.5;exitY=1;exitDx=0;exitDy=0;entryX=0.5;entryY=0;entryDx=0;entryDy=0;" parent="xQAk2ao9affxVQ1fcgdg-56" source="xQAk2ao9affxVQ1fcgdg-5" target="xQAk2ao9affxVQ1fcgdg-11" edge="1">
          <mxGeometry width="50" height="50" relative="1" as="geometry">
            <mxPoint x="200" y="140" as="sourcePoint" />
            <mxPoint x="140" y="200" as="targetPoint" />
          </mxGeometry>
        </mxCell>
        <mxCell id="xQAk2ao9affxVQ1fcgdg-53" value="&lt;font color=&quot;#00cc00&quot; style=&quot;font-size: 18px;&quot;&gt;&lt;b&gt;&amp;nbsp;S&amp;nbsp;&lt;/b&gt;&lt;/font&gt;" style="edgeLabel;html=1;align=center;verticalAlign=middle;resizable=0;points=[];" parent="xQAk2ao9affxVQ1fcgdg-14" vertex="1" connectable="0">
          <mxGeometry x="-0.25" y="1" relative="1" as="geometry">
            <mxPoint x="-1" y="-5" as="offset" />
          </mxGeometry>
        </mxCell>
        <mxCell id="xQAk2ao9affxVQ1fcgdg-15" value="&lt;font style=&quot;font-size: 24px;&quot;&gt;6&lt;/font&gt;" style="ellipse;whiteSpace=wrap;html=1;aspect=fixed;fillColor=#FF9933;" parent="xQAk2ao9affxVQ1fcgdg-56" vertex="1">
          <mxGeometry x="100" y="340" width="40" height="40" as="geometry" />
        </mxCell>
        <mxCell id="xQAk2ao9affxVQ1fcgdg-16" value="" style="endArrow=classic;html=1;rounded=0;exitX=0.5;exitY=1;exitDx=0;exitDy=0;entryX=0.5;entryY=0;entryDx=0;entryDy=0;" parent="xQAk2ao9affxVQ1fcgdg-56" source="xQAk2ao9affxVQ1fcgdg-11" target="xQAk2ao9affxVQ1fcgdg-15" edge="1">
          <mxGeometry width="50" height="50" relative="1" as="geometry">
            <mxPoint x="150" y="330" as="sourcePoint" />
            <mxPoint x="150" y="370" as="targetPoint" />
          </mxGeometry>
        </mxCell>
        <mxCell id="xQAk2ao9affxVQ1fcgdg-17" value="" style="endArrow=classic;html=1;rounded=0;exitX=1;exitY=1;exitDx=0;exitDy=0;entryX=0;entryY=0;entryDx=0;entryDy=0;" parent="xQAk2ao9affxVQ1fcgdg-56" source="xQAk2ao9affxVQ1fcgdg-12" target="xQAk2ao9affxVQ1fcgdg-15" edge="1">
          <mxGeometry width="50" height="50" relative="1" as="geometry">
            <mxPoint x="50" y="330" as="sourcePoint" />
            <mxPoint x="80" y="350" as="targetPoint" />
          </mxGeometry>
        </mxCell>
        <mxCell id="xQAk2ao9affxVQ1fcgdg-18" value="&lt;font style=&quot;font-size: 24px;&quot;&gt;7&lt;/font&gt;" style="ellipse;whiteSpace=wrap;html=1;aspect=fixed;fillColor=#FF9933;" parent="xQAk2ao9affxVQ1fcgdg-56" vertex="1">
          <mxGeometry x="180" y="420" width="40" height="40" as="geometry" />
        </mxCell>
        <mxCell id="xQAk2ao9affxVQ1fcgdg-20" value="" style="endArrow=classic;html=1;rounded=0;entryX=0;entryY=0;entryDx=0;entryDy=0;exitX=1;exitY=1;exitDx=0;exitDy=0;" parent="xQAk2ao9affxVQ1fcgdg-56" source="xQAk2ao9affxVQ1fcgdg-15" target="xQAk2ao9affxVQ1fcgdg-18" edge="1">
          <mxGeometry width="50" height="50" relative="1" as="geometry">
            <mxPoint x="150" y="390" as="sourcePoint" />
            <mxPoint x="180" y="420" as="targetPoint" />
          </mxGeometry>
        </mxCell>
        <mxCell id="xQAk2ao9affxVQ1fcgdg-21" value="" style="endArrow=classic;html=1;rounded=0;exitX=0.5;exitY=1;exitDx=0;exitDy=0;entryX=0.5;entryY=0;entryDx=0;entryDy=0;" parent="xQAk2ao9affxVQ1fcgdg-56" source="xQAk2ao9affxVQ1fcgdg-4" target="xQAk2ao9affxVQ1fcgdg-18" edge="1">
          <mxGeometry width="50" height="50" relative="1" as="geometry">
            <mxPoint x="300" y="380" as="sourcePoint" />
            <mxPoint x="300" y="420" as="targetPoint" />
          </mxGeometry>
        </mxCell>
        <mxCell id="xQAk2ao9affxVQ1fcgdg-22" value="&lt;font style=&quot;font-size: 24px;&quot;&gt;F&lt;/font&gt;" style="ellipse;whiteSpace=wrap;html=1;aspect=fixed;fillColor=#FF0000;" parent="xQAk2ao9affxVQ1fcgdg-56" vertex="1">
          <mxGeometry x="180" y="500" width="40" height="40" as="geometry" />
        </mxCell>
        <mxCell id="xQAk2ao9affxVQ1fcgdg-24" value="" style="endArrow=classic;html=1;rounded=0;exitX=0.5;exitY=1;exitDx=0;exitDy=0;entryX=0.5;entryY=0;entryDx=0;entryDy=0;" parent="xQAk2ao9affxVQ1fcgdg-56" source="xQAk2ao9affxVQ1fcgdg-18" target="xQAk2ao9affxVQ1fcgdg-22" edge="1">
          <mxGeometry width="50" height="50" relative="1" as="geometry">
            <mxPoint x="240" y="500" as="sourcePoint" />
            <mxPoint x="240" y="540" as="targetPoint" />
          </mxGeometry>
        </mxCell>
        <mxCell id="xQAk2ao9affxVQ1fcgdg-25" value="&lt;font style=&quot;font-size: 18px;&quot;&gt;If a&lt;/font&gt;" style="text;html=1;align=center;verticalAlign=middle;whiteSpace=wrap;rounded=0;" parent="xQAk2ao9affxVQ1fcgdg-56" vertex="1">
          <mxGeometry x="220" y="105" width="40" height="30" as="geometry" />
        </mxCell>
        <mxCell id="xQAk2ao9affxVQ1fcgdg-26" value="&lt;font style=&quot;font-size: 18px;&quot;&gt;x&lt;/font&gt;" style="text;html=1;align=center;verticalAlign=middle;whiteSpace=wrap;rounded=0;" parent="xQAk2ao9affxVQ1fcgdg-56" vertex="1">
          <mxGeometry x="220" y="265" width="30" height="30" as="geometry" />
        </mxCell>
        <mxCell id="xQAk2ao9affxVQ1fcgdg-27" value="&lt;font style=&quot;font-size: 18px;&quot;&gt;If b&lt;/font&gt;" style="text;html=1;align=center;verticalAlign=middle;whiteSpace=wrap;rounded=0;" parent="xQAk2ao9affxVQ1fcgdg-56" vertex="1">
          <mxGeometry x="140" y="185" width="40" height="30" as="geometry" />
        </mxCell>
        <mxCell id="xQAk2ao9affxVQ1fcgdg-28" value="&lt;font style=&quot;font-size: 18px;&quot;&gt;x&lt;/font&gt;" style="text;html=1;align=center;verticalAlign=middle;whiteSpace=wrap;rounded=0;" parent="xQAk2ao9affxVQ1fcgdg-56" vertex="1">
          <mxGeometry x="140" y="265" width="30" height="30" as="geometry" />
        </mxCell>
        <mxCell id="xQAk2ao9affxVQ1fcgdg-29" value="&lt;font style=&quot;font-size: 18px;&quot;&gt;y&lt;/font&gt;" style="text;html=1;align=center;verticalAlign=middle;whiteSpace=wrap;rounded=0;" parent="xQAk2ao9affxVQ1fcgdg-56" vertex="1">
          <mxGeometry x="60" y="265" width="30" height="30" as="geometry" />
        </mxCell>
        <mxCell id="xQAk2ao9affxVQ1fcgdg-30" value="&lt;font style=&quot;font-size: 18px;&quot;&gt;end if&lt;/font&gt;" style="text;html=1;align=center;verticalAlign=middle;whiteSpace=wrap;rounded=0;" parent="xQAk2ao9affxVQ1fcgdg-56" vertex="1">
          <mxGeometry x="140" y="345" width="60" height="30" as="geometry" />
        </mxCell>
        <mxCell id="xQAk2ao9affxVQ1fcgdg-31" value="&lt;font style=&quot;font-size: 18px;&quot;&gt;end if&lt;/font&gt;" style="text;html=1;align=center;verticalAlign=middle;whiteSpace=wrap;rounded=0;" parent="xQAk2ao9affxVQ1fcgdg-56" vertex="1">
          <mxGeometry x="220" y="425" width="60" height="30" as="geometry" />
        </mxCell>
        <mxCell id="xQAk2ao9affxVQ1fcgdg-3" value="&lt;font style=&quot;font-size: 24px;&quot;&gt;1&lt;/font&gt;" style="ellipse;whiteSpace=wrap;html=1;aspect=fixed;fillColor=#FF9933;" parent="xQAk2ao9affxVQ1fcgdg-56" vertex="1">
          <mxGeometry x="180" y="100" width="40" height="40" as="geometry" />
        </mxCell>
        <mxCell id="xQAk2ao9affxVQ1fcgdg-5" value="&lt;font style=&quot;font-size: 24px;&quot;&gt;3&lt;/font&gt;" style="ellipse;whiteSpace=wrap;html=1;aspect=fixed;fillColor=#FF9933;" parent="xQAk2ao9affxVQ1fcgdg-56" vertex="1">
          <mxGeometry x="100" y="180" width="40" height="40" as="geometry" />
        </mxCell>
        <mxCell id="g2Ka9raoZhiMibMWZY03-114" value="" style="group" parent="1" vertex="1" connectable="0">
          <mxGeometry x="320" y="20" width="500" height="440" as="geometry" />
        </mxCell>
        <mxCell id="g2Ka9raoZhiMibMWZY03-113" value="" style="rounded=0;whiteSpace=wrap;html=1;strokeColor=default;" parent="g2Ka9raoZhiMibMWZY03-114" vertex="1">
          <mxGeometry width="500" height="440" as="geometry" />
        </mxCell>
        <mxCell id="g2Ka9raoZhiMibMWZY03-17" style="edgeStyle=orthogonalEdgeStyle;rounded=0;orthogonalLoop=1;jettySize=auto;html=1;" parent="g2Ka9raoZhiMibMWZY03-114" source="g2Ka9raoZhiMibMWZY03-1" target="g2Ka9raoZhiMibMWZY03-5" edge="1">
          <mxGeometry relative="1" as="geometry" />
        </mxCell>
        <mxCell id="g2Ka9raoZhiMibMWZY03-1" value="&lt;font style=&quot;font-size: 24px;&quot;&gt;C&lt;/font&gt;" style="ellipse;whiteSpace=wrap;html=1;aspect=fixed;fillColor=#FF0000;" parent="g2Ka9raoZhiMibMWZY03-114" vertex="1">
          <mxGeometry x="200" y="20" width="40" height="40" as="geometry" />
        </mxCell>
        <mxCell id="g2Ka9raoZhiMibMWZY03-2" value="&lt;font style=&quot;font-size: 24px;&quot;&gt;F&lt;/font&gt;" style="ellipse;whiteSpace=wrap;html=1;aspect=fixed;fillColor=#FF0000;" parent="g2Ka9raoZhiMibMWZY03-114" vertex="1">
          <mxGeometry x="200" y="380" width="40" height="40" as="geometry" />
        </mxCell>
        <mxCell id="g2Ka9raoZhiMibMWZY03-22" style="edgeStyle=orthogonalEdgeStyle;rounded=0;orthogonalLoop=1;jettySize=auto;html=1;" parent="g2Ka9raoZhiMibMWZY03-114" source="g2Ka9raoZhiMibMWZY03-5" target="g2Ka9raoZhiMibMWZY03-7" edge="1">
          <mxGeometry relative="1" as="geometry">
            <Array as="points">
              <mxPoint x="220" y="160" />
              <mxPoint x="160" y="160" />
            </Array>
          </mxGeometry>
        </mxCell>
        <mxCell id="g2Ka9raoZhiMibMWZY03-44" value="&lt;font color=&quot;#007fff&quot; style=&quot;font-size: 18px;&quot;&gt;&lt;b&gt;&amp;nbsp;2&amp;nbsp;&lt;/b&gt;&lt;/font&gt;" style="edgeLabel;html=1;align=center;verticalAlign=middle;resizable=0;points=[];" parent="g2Ka9raoZhiMibMWZY03-22" vertex="1" connectable="0">
          <mxGeometry x="0.3857" y="1" relative="1" as="geometry">
            <mxPoint x="-1" y="3" as="offset" />
          </mxGeometry>
        </mxCell>
        <mxCell id="g2Ka9raoZhiMibMWZY03-23" style="edgeStyle=orthogonalEdgeStyle;rounded=0;orthogonalLoop=1;jettySize=auto;html=1;" parent="g2Ka9raoZhiMibMWZY03-114" source="g2Ka9raoZhiMibMWZY03-5" target="g2Ka9raoZhiMibMWZY03-8" edge="1">
          <mxGeometry relative="1" as="geometry">
            <Array as="points">
              <mxPoint x="220" y="160" />
              <mxPoint x="280" y="160" />
            </Array>
          </mxGeometry>
        </mxCell>
        <mxCell id="g2Ka9raoZhiMibMWZY03-46" value="&lt;b style=&quot;color: rgb(0, 127, 255); font-size: 18px;&quot;&gt;&amp;nbsp;3&amp;nbsp;&lt;/b&gt;" style="edgeLabel;html=1;align=center;verticalAlign=middle;resizable=0;points=[];" parent="g2Ka9raoZhiMibMWZY03-23" vertex="1" connectable="0">
          <mxGeometry x="0.3894" relative="1" as="geometry">
            <mxPoint y="3" as="offset" />
          </mxGeometry>
        </mxCell>
        <mxCell id="g2Ka9raoZhiMibMWZY03-24" style="edgeStyle=orthogonalEdgeStyle;rounded=0;orthogonalLoop=1;jettySize=auto;html=1;" parent="g2Ka9raoZhiMibMWZY03-114" source="g2Ka9raoZhiMibMWZY03-5" target="g2Ka9raoZhiMibMWZY03-10" edge="1">
          <mxGeometry relative="1" as="geometry">
            <Array as="points">
              <mxPoint x="220" y="160" />
              <mxPoint x="400" y="160" />
            </Array>
          </mxGeometry>
        </mxCell>
        <mxCell id="g2Ka9raoZhiMibMWZY03-47" value="&lt;b style=&quot;color: rgb(0, 127, 255); font-size: 18px;&quot;&gt;&amp;nbsp;else&amp;nbsp;&lt;/b&gt;" style="edgeLabel;html=1;align=center;verticalAlign=middle;resizable=0;points=[];" parent="g2Ka9raoZhiMibMWZY03-24" vertex="1" connectable="0">
          <mxGeometry x="0.6952" y="-1" relative="1" as="geometry">
            <mxPoint x="1" as="offset" />
          </mxGeometry>
        </mxCell>
        <mxCell id="g2Ka9raoZhiMibMWZY03-25" style="edgeStyle=orthogonalEdgeStyle;rounded=0;orthogonalLoop=1;jettySize=auto;html=1;" parent="g2Ka9raoZhiMibMWZY03-114" source="g2Ka9raoZhiMibMWZY03-5" target="g2Ka9raoZhiMibMWZY03-9" edge="1">
          <mxGeometry relative="1" as="geometry">
            <Array as="points">
              <mxPoint x="220" y="160" />
              <mxPoint x="40" y="160" />
            </Array>
          </mxGeometry>
        </mxCell>
        <mxCell id="g2Ka9raoZhiMibMWZY03-45" value="&lt;b style=&quot;color: rgb(0, 127, 255); font-size: 18px;&quot;&gt;&amp;nbsp;1&amp;nbsp;&lt;/b&gt;" style="edgeLabel;html=1;align=center;verticalAlign=middle;resizable=0;points=[];" parent="g2Ka9raoZhiMibMWZY03-25" vertex="1" connectable="0">
          <mxGeometry x="0.6784" relative="1" as="geometry">
            <mxPoint y="2" as="offset" />
          </mxGeometry>
        </mxCell>
        <mxCell id="g2Ka9raoZhiMibMWZY03-18" style="edgeStyle=orthogonalEdgeStyle;rounded=0;orthogonalLoop=1;jettySize=auto;html=1;" parent="g2Ka9raoZhiMibMWZY03-114" source="g2Ka9raoZhiMibMWZY03-6" target="g2Ka9raoZhiMibMWZY03-2" edge="1">
          <mxGeometry relative="1" as="geometry" />
        </mxCell>
        <mxCell id="g2Ka9raoZhiMibMWZY03-21" style="edgeStyle=orthogonalEdgeStyle;rounded=0;orthogonalLoop=1;jettySize=auto;html=1;" parent="g2Ka9raoZhiMibMWZY03-114" source="g2Ka9raoZhiMibMWZY03-7" target="g2Ka9raoZhiMibMWZY03-8" edge="1">
          <mxGeometry relative="1" as="geometry" />
        </mxCell>
        <mxCell id="g2Ka9raoZhiMibMWZY03-7" value="&lt;font style=&quot;font-size: 24px;&quot;&gt;3&lt;/font&gt;" style="ellipse;whiteSpace=wrap;html=1;aspect=fixed;fillColor=#FFFF33;" parent="g2Ka9raoZhiMibMWZY03-114" vertex="1">
          <mxGeometry x="140" y="220" width="40" height="40" as="geometry" />
        </mxCell>
        <mxCell id="g2Ka9raoZhiMibMWZY03-19" style="edgeStyle=orthogonalEdgeStyle;rounded=0;orthogonalLoop=1;jettySize=auto;html=1;" parent="g2Ka9raoZhiMibMWZY03-114" source="g2Ka9raoZhiMibMWZY03-8" target="g2Ka9raoZhiMibMWZY03-6" edge="1">
          <mxGeometry relative="1" as="geometry">
            <Array as="points">
              <mxPoint x="280" y="280" />
              <mxPoint x="220" y="280" />
            </Array>
          </mxGeometry>
        </mxCell>
        <mxCell id="g2Ka9raoZhiMibMWZY03-8" value="&lt;font style=&quot;font-size: 24px;&quot;&gt;4&lt;/font&gt;" style="ellipse;whiteSpace=wrap;html=1;aspect=fixed;fillColor=#FFFF33;" parent="g2Ka9raoZhiMibMWZY03-114" vertex="1">
          <mxGeometry x="260" y="220" width="40" height="40" as="geometry" />
        </mxCell>
        <mxCell id="g2Ka9raoZhiMibMWZY03-9" value="&lt;font style=&quot;font-size: 24px;&quot;&gt;2&lt;/font&gt;" style="ellipse;whiteSpace=wrap;html=1;aspect=fixed;fillColor=#FFFF33;" parent="g2Ka9raoZhiMibMWZY03-114" vertex="1">
          <mxGeometry x="20" y="220" width="40" height="40" as="geometry" />
        </mxCell>
        <mxCell id="g2Ka9raoZhiMibMWZY03-20" style="edgeStyle=orthogonalEdgeStyle;rounded=0;orthogonalLoop=1;jettySize=auto;html=1;" parent="g2Ka9raoZhiMibMWZY03-114" source="g2Ka9raoZhiMibMWZY03-10" target="g2Ka9raoZhiMibMWZY03-6" edge="1">
          <mxGeometry relative="1" as="geometry">
            <Array as="points">
              <mxPoint x="400" y="280" />
              <mxPoint x="220" y="280" />
            </Array>
          </mxGeometry>
        </mxCell>
        <mxCell id="g2Ka9raoZhiMibMWZY03-10" value="&lt;font style=&quot;font-size: 24px;&quot;&gt;5&lt;/font&gt;" style="ellipse;whiteSpace=wrap;html=1;aspect=fixed;fillColor=#FFFF33;" parent="g2Ka9raoZhiMibMWZY03-114" vertex="1">
          <mxGeometry x="380" y="220" width="40" height="40" as="geometry" />
        </mxCell>
        <mxCell id="g2Ka9raoZhiMibMWZY03-11" value="" style="endArrow=classic;html=1;rounded=0;entryX=0.5;entryY=0;entryDx=0;entryDy=0;exitX=0.5;exitY=1;exitDx=0;exitDy=0;edgeStyle=orthogonalEdgeStyle;" parent="g2Ka9raoZhiMibMWZY03-114" source="g2Ka9raoZhiMibMWZY03-9" target="g2Ka9raoZhiMibMWZY03-6" edge="1">
          <mxGeometry width="50" height="50" relative="1" as="geometry">
            <mxPoint x="-30" y="320" as="sourcePoint" />
            <mxPoint x="90" y="320" as="targetPoint" />
            <Array as="points">
              <mxPoint x="40" y="280" />
              <mxPoint x="220" y="280" />
            </Array>
          </mxGeometry>
        </mxCell>
        <mxCell id="g2Ka9raoZhiMibMWZY03-27" value="&lt;font style=&quot;font-size: 18px;&quot;&gt;sw a&lt;/font&gt;" style="text;html=1;align=center;verticalAlign=middle;whiteSpace=wrap;rounded=0;" parent="g2Ka9raoZhiMibMWZY03-114" vertex="1">
          <mxGeometry x="240" y="105" width="50" height="30" as="geometry" />
        </mxCell>
        <mxCell id="g2Ka9raoZhiMibMWZY03-39" value="&lt;span style=&quot;color: rgb(0, 0, 0); font-family: Helvetica; font-size: 18px; font-style: normal; font-variant-ligatures: normal; font-variant-caps: normal; font-weight: 400; letter-spacing: normal; orphans: 2; text-indent: 0px; text-transform: none; widows: 2; word-spacing: 0px; -webkit-text-stroke-width: 0px; white-space: normal; background-color: rgb(251, 251, 251); text-decoration-thickness: initial; text-decoration-style: initial; text-decoration-color: initial; float: none; display: inline !important;&quot;&gt;p(dos)&lt;/span&gt;" style="text;whiteSpace=wrap;html=1;align=center;" parent="g2Ka9raoZhiMibMWZY03-114" vertex="1">
          <mxGeometry x="180" y="200" width="60" height="30" as="geometry" />
        </mxCell>
        <mxCell id="g2Ka9raoZhiMibMWZY03-40" value="&lt;font style=&quot;font-size: 18px;&quot;&gt;end sw&lt;/font&gt;" style="text;whiteSpace=wrap;html=1;align=center;" parent="g2Ka9raoZhiMibMWZY03-114" vertex="1">
          <mxGeometry x="240" y="305" width="70" height="30" as="geometry" />
        </mxCell>
        <mxCell id="g2Ka9raoZhiMibMWZY03-5" value="&lt;font style=&quot;font-size: 24px;&quot;&gt;1&lt;/font&gt;" style="ellipse;whiteSpace=wrap;html=1;aspect=fixed;fillColor=#FF9933;" parent="g2Ka9raoZhiMibMWZY03-114" vertex="1">
          <mxGeometry x="200" y="100" width="40" height="40" as="geometry" />
        </mxCell>
        <mxCell id="g2Ka9raoZhiMibMWZY03-6" value="&lt;font style=&quot;font-size: 24px;&quot;&gt;6&lt;/font&gt;" style="ellipse;whiteSpace=wrap;html=1;aspect=fixed;fillColor=#FF9933;" parent="g2Ka9raoZhiMibMWZY03-114" vertex="1">
          <mxGeometry x="200" y="300" width="40" height="40" as="geometry" />
        </mxCell>
        <mxCell id="g2Ka9raoZhiMibMWZY03-41" value="&lt;span style=&quot;color: rgb(0, 0, 0); font-family: Helvetica; font-size: 18px; font-style: normal; font-variant-ligatures: normal; font-variant-caps: normal; font-weight: 400; letter-spacing: normal; orphans: 2; text-indent: 0px; text-transform: none; widows: 2; word-spacing: 0px; -webkit-text-stroke-width: 0px; white-space: normal; background-color: rgb(251, 251, 251); text-decoration-thickness: initial; text-decoration-style: initial; text-decoration-color: initial; float: none; display: inline !important;&quot;&gt;p(uno)&lt;/span&gt;" style="text;whiteSpace=wrap;html=1;align=center;" parent="g2Ka9raoZhiMibMWZY03-114" vertex="1">
          <mxGeometry x="60" y="200" width="60" height="30" as="geometry" />
        </mxCell>
        <mxCell id="g2Ka9raoZhiMibMWZY03-42" value="&lt;span style=&quot;color: rgb(0, 0, 0); font-family: Helvetica; font-size: 18px; font-style: normal; font-variant-ligatures: normal; font-variant-caps: normal; font-weight: 400; letter-spacing: normal; orphans: 2; text-indent: 0px; text-transform: none; widows: 2; word-spacing: 0px; -webkit-text-stroke-width: 0px; white-space: normal; background-color: rgb(251, 251, 251); text-decoration-thickness: initial; text-decoration-style: initial; text-decoration-color: initial; float: none; display: inline !important;&quot;&gt;p(tres)&lt;/span&gt;" style="text;whiteSpace=wrap;html=1;align=center;" parent="g2Ka9raoZhiMibMWZY03-114" vertex="1">
          <mxGeometry x="300" y="200" width="60" height="30" as="geometry" />
        </mxCell>
        <mxCell id="g2Ka9raoZhiMibMWZY03-43" value="&lt;span style=&quot;color: rgb(0, 0, 0); font-family: Helvetica; font-size: 18px; font-style: normal; font-variant-ligatures: normal; font-variant-caps: normal; font-weight: 400; letter-spacing: normal; orphans: 2; text-indent: 0px; text-transform: none; widows: 2; word-spacing: 0px; -webkit-text-stroke-width: 0px; white-space: normal; background-color: rgb(251, 251, 251); text-decoration-thickness: initial; text-decoration-style: initial; text-decoration-color: initial; float: none; display: inline !important;&quot;&gt;p(NaN)&lt;/span&gt;" style="text;whiteSpace=wrap;html=1;align=center;" parent="g2Ka9raoZhiMibMWZY03-114" vertex="1">
          <mxGeometry x="420" y="200" width="60" height="30" as="geometry" />
        </mxCell>
        <mxCell id="g2Ka9raoZhiMibMWZY03-173" value="" style="group" parent="1" vertex="1" connectable="0">
          <mxGeometry x="820" y="20" width="340" height="800" as="geometry" />
        </mxCell>
        <mxCell id="g2Ka9raoZhiMibMWZY03-172" value="" style="rounded=0;whiteSpace=wrap;html=1;" parent="g2Ka9raoZhiMibMWZY03-173" vertex="1">
          <mxGeometry width="340" height="800" as="geometry" />
        </mxCell>
        <mxCell id="g2Ka9raoZhiMibMWZY03-141" style="edgeStyle=none;rounded=0;orthogonalLoop=1;jettySize=auto;html=1;exitX=0.5;exitY=1;exitDx=0;exitDy=0;entryX=0.5;entryY=0;entryDx=0;entryDy=0;" parent="g2Ka9raoZhiMibMWZY03-173" source="g2Ka9raoZhiMibMWZY03-118" target="g2Ka9raoZhiMibMWZY03-119" edge="1">
          <mxGeometry relative="1" as="geometry" />
        </mxCell>
        <mxCell id="g2Ka9raoZhiMibMWZY03-156" value="&lt;font color=&quot;#00cc00&quot; style=&quot;font-size: 18px;&quot;&gt;&lt;b style=&quot;&quot;&gt;&amp;nbsp;S&amp;nbsp;&lt;/b&gt;&lt;/font&gt;" style="edgeLabel;html=1;align=center;verticalAlign=middle;resizable=0;points=[];" parent="g2Ka9raoZhiMibMWZY03-141" vertex="1" connectable="0">
          <mxGeometry x="-0.3167" y="-1" relative="1" as="geometry">
            <mxPoint x="1" y="-4" as="offset" />
          </mxGeometry>
        </mxCell>
        <mxCell id="g2Ka9raoZhiMibMWZY03-142" style="edgeStyle=none;rounded=0;orthogonalLoop=1;jettySize=auto;html=1;exitX=0.5;exitY=1;exitDx=0;exitDy=0;entryX=0.5;entryY=0;entryDx=0;entryDy=0;" parent="g2Ka9raoZhiMibMWZY03-173" source="g2Ka9raoZhiMibMWZY03-116" target="g2Ka9raoZhiMibMWZY03-118" edge="1">
          <mxGeometry relative="1" as="geometry" />
        </mxCell>
        <mxCell id="g2Ka9raoZhiMibMWZY03-116" value="&lt;font style=&quot;font-size: 24px;&quot;&gt;C&lt;/font&gt;" style="ellipse;whiteSpace=wrap;html=1;aspect=fixed;fillColor=#FF0000;" parent="g2Ka9raoZhiMibMWZY03-173" vertex="1">
          <mxGeometry x="200" y="20" width="40" height="40" as="geometry" />
        </mxCell>
        <mxCell id="g2Ka9raoZhiMibMWZY03-117" value="&lt;font style=&quot;font-size: 24px;&quot;&gt;F&lt;/font&gt;" style="ellipse;whiteSpace=wrap;html=1;aspect=fixed;fillColor=#FF0000;" parent="g2Ka9raoZhiMibMWZY03-173" vertex="1">
          <mxGeometry x="200" y="740" width="40" height="40" as="geometry" />
        </mxCell>
        <mxCell id="g2Ka9raoZhiMibMWZY03-147" style="edgeStyle=orthogonalEdgeStyle;rounded=0;orthogonalLoop=1;jettySize=auto;html=1;entryX=0;entryY=0.5;entryDx=0;entryDy=0;" parent="g2Ka9raoZhiMibMWZY03-173" source="g2Ka9raoZhiMibMWZY03-118" target="g2Ka9raoZhiMibMWZY03-128" edge="1">
          <mxGeometry relative="1" as="geometry">
            <mxPoint x="20" y="640" as="targetPoint" />
            <Array as="points">
              <mxPoint x="20" y="120" />
              <mxPoint x="20" y="680" />
            </Array>
          </mxGeometry>
        </mxCell>
        <mxCell id="g2Ka9raoZhiMibMWZY03-157" value="&lt;b&gt;&lt;font color=&quot;#ff0000&quot; style=&quot;font-size: 18px;&quot;&gt;&amp;nbsp;N&amp;nbsp;&lt;/font&gt;&lt;/b&gt;" style="edgeLabel;html=1;align=center;verticalAlign=middle;resizable=0;points=[];" parent="g2Ka9raoZhiMibMWZY03-147" vertex="1" connectable="0">
          <mxGeometry x="-0.8945" y="1" relative="1" as="geometry">
            <mxPoint x="39" y="-1" as="offset" />
          </mxGeometry>
        </mxCell>
        <mxCell id="g2Ka9raoZhiMibMWZY03-135" style="edgeStyle=none;rounded=0;orthogonalLoop=1;jettySize=auto;html=1;exitX=0.5;exitY=1;exitDx=0;exitDy=0;entryX=0.5;entryY=0;entryDx=0;entryDy=0;" parent="g2Ka9raoZhiMibMWZY03-173" source="g2Ka9raoZhiMibMWZY03-119" target="g2Ka9raoZhiMibMWZY03-120" edge="1">
          <mxGeometry relative="1" as="geometry" />
        </mxCell>
        <mxCell id="g2Ka9raoZhiMibMWZY03-119" value="&lt;font style=&quot;font-size: 24px;&quot;&gt;2&lt;/font&gt;" style="ellipse;whiteSpace=wrap;html=1;aspect=fixed;fillColor=#FFFF33;" parent="g2Ka9raoZhiMibMWZY03-173" vertex="1">
          <mxGeometry x="200" y="180" width="40" height="40" as="geometry" />
        </mxCell>
        <mxCell id="g2Ka9raoZhiMibMWZY03-133" style="edgeStyle=none;rounded=0;orthogonalLoop=1;jettySize=auto;html=1;exitX=0;exitY=1;exitDx=0;exitDy=0;entryX=1;entryY=0;entryDx=0;entryDy=0;" parent="g2Ka9raoZhiMibMWZY03-173" source="g2Ka9raoZhiMibMWZY03-120" target="g2Ka9raoZhiMibMWZY03-122" edge="1">
          <mxGeometry relative="1" as="geometry" />
        </mxCell>
        <mxCell id="g2Ka9raoZhiMibMWZY03-164" value="&lt;font color=&quot;#ff0000&quot; style=&quot;font-size: 18px;&quot;&gt;&lt;b&gt;N&amp;nbsp;&lt;/b&gt;&lt;/font&gt;" style="edgeLabel;html=1;align=center;verticalAlign=middle;resizable=0;points=[];" parent="g2Ka9raoZhiMibMWZY03-133" vertex="1" connectable="0">
          <mxGeometry x="-0.7273" relative="1" as="geometry">
            <mxPoint as="offset" />
          </mxGeometry>
        </mxCell>
        <mxCell id="g2Ka9raoZhiMibMWZY03-134" style="edgeStyle=none;rounded=0;orthogonalLoop=1;jettySize=auto;html=1;exitX=0.5;exitY=1;exitDx=0;exitDy=0;entryX=0.5;entryY=0;entryDx=0;entryDy=0;" parent="g2Ka9raoZhiMibMWZY03-173" source="g2Ka9raoZhiMibMWZY03-120" target="g2Ka9raoZhiMibMWZY03-121" edge="1">
          <mxGeometry relative="1" as="geometry" />
        </mxCell>
        <mxCell id="g2Ka9raoZhiMibMWZY03-138" style="edgeStyle=none;rounded=0;orthogonalLoop=1;jettySize=auto;html=1;exitX=0.5;exitY=1;exitDx=0;exitDy=0;entryX=0.5;entryY=0;entryDx=0;entryDy=0;" parent="g2Ka9raoZhiMibMWZY03-173" source="g2Ka9raoZhiMibMWZY03-121" target="g2Ka9raoZhiMibMWZY03-127" edge="1">
          <mxGeometry relative="1" as="geometry" />
        </mxCell>
        <mxCell id="g2Ka9raoZhiMibMWZY03-121" value="&lt;font style=&quot;font-size: 24px;&quot;&gt;4&lt;/font&gt;" style="ellipse;whiteSpace=wrap;html=1;aspect=fixed;fillColor=#FFFF33;" parent="g2Ka9raoZhiMibMWZY03-173" vertex="1">
          <mxGeometry x="200" y="340" width="40" height="40" as="geometry" />
        </mxCell>
        <mxCell id="g2Ka9raoZhiMibMWZY03-132" style="edgeStyle=none;rounded=0;orthogonalLoop=1;jettySize=auto;html=1;exitX=0;exitY=1;exitDx=0;exitDy=0;entryX=0;entryY=1;entryDx=0;entryDy=0;" parent="g2Ka9raoZhiMibMWZY03-173" source="g2Ka9raoZhiMibMWZY03-122" target="g2Ka9raoZhiMibMWZY03-124" edge="1">
          <mxGeometry relative="1" as="geometry" />
        </mxCell>
        <mxCell id="g2Ka9raoZhiMibMWZY03-163" value="&lt;font color=&quot;#ff0000&quot; style=&quot;font-size: 18px;&quot;&gt;&lt;b&gt;N&amp;nbsp;&lt;/b&gt;&lt;/font&gt;" style="edgeLabel;html=1;align=center;verticalAlign=middle;resizable=0;points=[];" parent="g2Ka9raoZhiMibMWZY03-132" vertex="1" connectable="0">
          <mxGeometry x="-0.7846" relative="1" as="geometry">
            <mxPoint as="offset" />
          </mxGeometry>
        </mxCell>
        <mxCell id="g2Ka9raoZhiMibMWZY03-136" style="edgeStyle=none;rounded=0;orthogonalLoop=1;jettySize=auto;html=1;exitX=0.5;exitY=1;exitDx=0;exitDy=0;entryX=0.5;entryY=0;entryDx=0;entryDy=0;" parent="g2Ka9raoZhiMibMWZY03-173" source="g2Ka9raoZhiMibMWZY03-122" target="g2Ka9raoZhiMibMWZY03-123" edge="1">
          <mxGeometry relative="1" as="geometry" />
        </mxCell>
        <mxCell id="g2Ka9raoZhiMibMWZY03-137" style="edgeStyle=none;rounded=0;orthogonalLoop=1;jettySize=auto;html=1;exitX=0.5;exitY=1;exitDx=0;exitDy=0;entryX=0.5;entryY=0;entryDx=0;entryDy=0;" parent="g2Ka9raoZhiMibMWZY03-173" source="g2Ka9raoZhiMibMWZY03-123" target="g2Ka9raoZhiMibMWZY03-125" edge="1">
          <mxGeometry relative="1" as="geometry" />
        </mxCell>
        <mxCell id="g2Ka9raoZhiMibMWZY03-123" value="&lt;font style=&quot;font-size: 24px;&quot;&gt;6&lt;/font&gt;" style="ellipse;whiteSpace=wrap;html=1;aspect=fixed;fillColor=#FFFF33;" parent="g2Ka9raoZhiMibMWZY03-173" vertex="1">
          <mxGeometry x="120" y="420" width="40" height="40" as="geometry" />
        </mxCell>
        <mxCell id="g2Ka9raoZhiMibMWZY03-131" style="edgeStyle=none;rounded=0;orthogonalLoop=1;jettySize=auto;html=1;exitX=1;exitY=1;exitDx=0;exitDy=0;entryX=0;entryY=0;entryDx=0;entryDy=0;" parent="g2Ka9raoZhiMibMWZY03-173" source="g2Ka9raoZhiMibMWZY03-124" target="g2Ka9raoZhiMibMWZY03-125" edge="1">
          <mxGeometry relative="1" as="geometry" />
        </mxCell>
        <mxCell id="g2Ka9raoZhiMibMWZY03-124" value="&lt;font style=&quot;font-size: 24px;&quot;&gt;7&lt;/font&gt;" style="ellipse;whiteSpace=wrap;html=1;aspect=fixed;fillColor=#FFFF33;direction=west;" parent="g2Ka9raoZhiMibMWZY03-173" vertex="1">
          <mxGeometry x="40" y="420" width="40" height="40" as="geometry" />
        </mxCell>
        <mxCell id="g2Ka9raoZhiMibMWZY03-139" style="edgeStyle=none;rounded=0;orthogonalLoop=1;jettySize=auto;html=1;exitX=1;exitY=1;exitDx=0;exitDy=0;entryX=0;entryY=0;entryDx=0;entryDy=0;" parent="g2Ka9raoZhiMibMWZY03-173" source="g2Ka9raoZhiMibMWZY03-125" target="g2Ka9raoZhiMibMWZY03-127" edge="1">
          <mxGeometry relative="1" as="geometry" />
        </mxCell>
        <mxCell id="g2Ka9raoZhiMibMWZY03-125" value="&lt;font style=&quot;font-size: 24px;&quot;&gt;8&lt;/font&gt;" style="ellipse;whiteSpace=wrap;html=1;aspect=fixed;fillColor=#FF9933;" parent="g2Ka9raoZhiMibMWZY03-173" vertex="1">
          <mxGeometry x="120" y="500" width="40" height="40" as="geometry" />
        </mxCell>
        <mxCell id="g2Ka9raoZhiMibMWZY03-145" style="edgeStyle=orthogonalEdgeStyle;rounded=0;orthogonalLoop=1;jettySize=auto;html=1;entryX=1;entryY=0.5;entryDx=0;entryDy=0;" parent="g2Ka9raoZhiMibMWZY03-173" source="g2Ka9raoZhiMibMWZY03-127" target="g2Ka9raoZhiMibMWZY03-118" edge="1">
          <mxGeometry relative="1" as="geometry">
            <Array as="points">
              <mxPoint x="320" y="600" />
              <mxPoint x="320" y="120" />
            </Array>
          </mxGeometry>
        </mxCell>
        <mxCell id="g2Ka9raoZhiMibMWZY03-127" value="&lt;font style=&quot;font-size: 24px;&quot;&gt;9&lt;/font&gt;" style="ellipse;whiteSpace=wrap;html=1;aspect=fixed;fillColor=#FF9933;" parent="g2Ka9raoZhiMibMWZY03-173" vertex="1">
          <mxGeometry x="200" y="580" width="40" height="40" as="geometry" />
        </mxCell>
        <mxCell id="g2Ka9raoZhiMibMWZY03-143" style="edgeStyle=none;rounded=0;orthogonalLoop=1;jettySize=auto;html=1;exitX=0.5;exitY=1;exitDx=0;exitDy=0;entryX=0.5;entryY=0;entryDx=0;entryDy=0;" parent="g2Ka9raoZhiMibMWZY03-173" source="g2Ka9raoZhiMibMWZY03-128" target="g2Ka9raoZhiMibMWZY03-117" edge="1">
          <mxGeometry relative="1" as="geometry" />
        </mxCell>
        <mxCell id="g2Ka9raoZhiMibMWZY03-128" value="&lt;font style=&quot;font-size: 24px;&quot;&gt;10&lt;/font&gt;" style="ellipse;whiteSpace=wrap;html=1;aspect=fixed;fillColor=#FF9933;" parent="g2Ka9raoZhiMibMWZY03-173" vertex="1">
          <mxGeometry x="200" y="660" width="40" height="40" as="geometry" />
        </mxCell>
        <mxCell id="g2Ka9raoZhiMibMWZY03-148" value="&lt;font style=&quot;font-size: 18px;&quot;&gt;wh !final&lt;/font&gt;" style="text;html=1;align=center;verticalAlign=middle;whiteSpace=wrap;rounded=0;" parent="g2Ka9raoZhiMibMWZY03-173" vertex="1">
          <mxGeometry x="240" y="90" width="80" height="20" as="geometry" />
        </mxCell>
        <mxCell id="g2Ka9raoZhiMibMWZY03-151" value="&lt;font style=&quot;font-size: 18px;&quot;&gt;end wh&lt;/font&gt;" style="text;html=1;align=center;verticalAlign=middle;whiteSpace=wrap;rounded=0;" parent="g2Ka9raoZhiMibMWZY03-173" vertex="1">
          <mxGeometry x="240" y="670" width="70" height="20" as="geometry" />
        </mxCell>
        <mxCell id="g2Ka9raoZhiMibMWZY03-153" value="&lt;font style=&quot;font-size: 18px;&quot;&gt;end if&lt;/font&gt;" style="text;html=1;align=center;verticalAlign=middle;whiteSpace=wrap;rounded=0;" parent="g2Ka9raoZhiMibMWZY03-173" vertex="1">
          <mxGeometry x="60" y="510" width="60" height="20" as="geometry" />
        </mxCell>
        <mxCell id="g2Ka9raoZhiMibMWZY03-155" value="&lt;font style=&quot;font-size: 18px;&quot;&gt;end if&lt;/font&gt;" style="text;html=1;align=center;verticalAlign=middle;whiteSpace=wrap;rounded=0;" parent="g2Ka9raoZhiMibMWZY03-173" vertex="1">
          <mxGeometry x="140" y="590" width="60" height="20" as="geometry" />
        </mxCell>
        <mxCell id="g2Ka9raoZhiMibMWZY03-118" value="&lt;font style=&quot;font-size: 24px;&quot;&gt;1&lt;/font&gt;" style="ellipse;whiteSpace=wrap;html=1;aspect=fixed;fillColor=#FF9933;" parent="g2Ka9raoZhiMibMWZY03-173" vertex="1">
          <mxGeometry x="200" y="100" width="40" height="40" as="geometry" />
        </mxCell>
        <mxCell id="g2Ka9raoZhiMibMWZY03-158" value="&lt;font color=&quot;#00cc00&quot; style=&quot;font-size: 18px;&quot;&gt;&lt;b style=&quot;&quot;&gt;&amp;nbsp;S&amp;nbsp;&lt;/b&gt;&lt;/font&gt;" style="edgeLabel;html=1;align=center;verticalAlign=middle;resizable=0;points=[];" parent="g2Ka9raoZhiMibMWZY03-173" vertex="1" connectable="0">
          <mxGeometry x="220" y="310" as="geometry">
            <mxPoint x="-1" as="offset" />
          </mxGeometry>
        </mxCell>
        <mxCell id="g2Ka9raoZhiMibMWZY03-159" value="&lt;font color=&quot;#00cc00&quot; style=&quot;font-size: 18px;&quot;&gt;&lt;b style=&quot;&quot;&gt;&amp;nbsp;S&amp;nbsp;&lt;/b&gt;&lt;/font&gt;" style="edgeLabel;html=1;align=center;verticalAlign=middle;resizable=0;points=[];" parent="g2Ka9raoZhiMibMWZY03-173" vertex="1" connectable="0">
          <mxGeometry x="140" y="390" as="geometry" />
        </mxCell>
        <mxCell id="g2Ka9raoZhiMibMWZY03-122" value="&lt;font style=&quot;font-size: 24px;&quot;&gt;5&lt;/font&gt;" style="ellipse;whiteSpace=wrap;html=1;aspect=fixed;fillColor=#FF9933;" parent="g2Ka9raoZhiMibMWZY03-173" vertex="1">
          <mxGeometry x="120" y="340" width="40" height="40" as="geometry" />
        </mxCell>
        <mxCell id="g2Ka9raoZhiMibMWZY03-120" value="&lt;font style=&quot;font-size: 24px;&quot;&gt;3&lt;/font&gt;" style="ellipse;whiteSpace=wrap;html=1;aspect=fixed;fillColor=#FF9933;" parent="g2Ka9raoZhiMibMWZY03-173" vertex="1">
          <mxGeometry x="200" y="260" width="40" height="40" as="geometry" />
        </mxCell>
        <mxCell id="g2Ka9raoZhiMibMWZY03-165" value="&lt;font style=&quot;font-size: 18px;&quot;&gt;if c1==0&lt;/font&gt;" style="text;html=1;align=center;verticalAlign=middle;whiteSpace=wrap;rounded=0;" parent="g2Ka9raoZhiMibMWZY03-173" vertex="1">
          <mxGeometry x="130" y="260" width="70" height="20" as="geometry" />
        </mxCell>
        <mxCell id="g2Ka9raoZhiMibMWZY03-166" value="&lt;font style=&quot;font-size: 18px;&quot;&gt;if c1==1&lt;/font&gt;" style="text;html=1;align=center;verticalAlign=middle;whiteSpace=wrap;rounded=0;" parent="g2Ka9raoZhiMibMWZY03-173" vertex="1">
          <mxGeometry x="50" y="340" width="70" height="20" as="geometry" />
        </mxCell>
        <mxCell id="g2Ka9raoZhiMibMWZY03-168" value="&lt;font style=&quot;font-size: 18px;&quot;&gt;fn()&lt;/font&gt;" style="text;html=1;align=center;verticalAlign=middle;whiteSpace=wrap;rounded=0;" parent="g2Ka9raoZhiMibMWZY03-173" vertex="1">
          <mxGeometry x="80" y="430" width="40" height="20" as="geometry" />
        </mxCell>
        <mxCell id="g2Ka9raoZhiMibMWZY03-169" value="&lt;font style=&quot;font-size: 18px;&quot;&gt;fn() i++&lt;/font&gt;" style="text;html=1;align=center;verticalAlign=middle;whiteSpace=wrap;rounded=0;" parent="g2Ka9raoZhiMibMWZY03-173" vertex="1">
          <mxGeometry x="240" y="340" width="40" height="40" as="geometry" />
        </mxCell>
        <mxCell id="g2Ka9raoZhiMibMWZY03-170" value="&lt;font style=&quot;font-size: 18px;&quot;&gt;i=0&lt;/font&gt;" style="text;html=1;align=center;verticalAlign=middle;whiteSpace=wrap;rounded=0;" parent="g2Ka9raoZhiMibMWZY03-173" vertex="1">
          <mxGeometry x="160" y="430" width="40" height="20" as="geometry" />
        </mxCell>
        <mxCell id="g2Ka9raoZhiMibMWZY03-171" value="&lt;font style=&quot;font-size: 18px;&quot;&gt;read&lt;/font&gt;" style="text;html=1;align=center;verticalAlign=middle;whiteSpace=wrap;rounded=0;" parent="g2Ka9raoZhiMibMWZY03-173" vertex="1">
          <mxGeometry x="240" y="190" width="50" height="20" as="geometry" />
        </mxCell>
      </root>
    </mxGraphModel>
  </diagram>
</mxfile>
